inDegrees=no
num_controls=7
num_derivatives=13
num_iterations=136
num_multipliers=7
num_parameters=0
num_slacks=7
num_states=26
objective=6.006145
objective_accelerations=0.389269
objective_balance=0.018401
objective_effort=0.423073
objective_height=5.064304
objective_ligament=0.111098
solver_duration=1169.533239
status=Solve_Succeeded
success=true
DataType=double
version=3
OpenSimVersion=4.4-2022-07-23-0e9fedc
endheader
time	/jointset/ground_pelvis/pelvis_tilt/value	/jointset/ground_pelvis/pelvis_tx/value	/jointset/ground_pelvis/pelvis_ty/value	/jointset/hip_r/hip_flexion_r/value	/jointset/hip_r/hip_adduction_r/value	/jointset/hip_r/hip_rotation_r/value	/jointset/back/lumbar_extension/value	/jointset/patellofemoral_r/patellar_flexion_r/value	/jointset/knee_r/knee_flexion_r/value	/jointset/knee_r/knee_adduction_r/value	/jointset/knee_r/knee_rotation_r/value	/jointset/ankle_r/ankle_angle_r/value	/jointset/subtalar_r/subtalar_angle_r/value	/jointset/ground_pelvis/pelvis_tilt/speed	/jointset/ground_pelvis/pelvis_tx/speed	/jointset/ground_pelvis/pelvis_ty/speed	/jointset/hip_r/hip_flexion_r/speed	/jointset/hip_r/hip_adduction_r/speed	/jointset/hip_r/hip_rotation_r/speed	/jointset/back/lumbar_extension/speed	/jointset/patellofemoral_r/patellar_flexion_r/speed	/jointset/knee_r/knee_flexion_r/speed	/jointset/knee_r/knee_adduction_r/speed	/jointset/knee_r/knee_rotation_r/speed	/jointset/ankle_r/ankle_angle_r/speed	/jointset/subtalar_r/subtalar_angle_r/speed	/forceset/tau_hip_flexion_r	/forceset/tau_hip_adduction_r	/forceset/tau_hip_rotation_r	/forceset/tau_knee_flexion_r	/forceset/tau_ankle_angle_r	/forceset/tau_subtalar_angle_r	/forceset/tau_lumbar_extension	lambda_cid13_p0	lambda_cid14_p0	lambda_cid14_p1	lambda_cid14_p2	lambda_cid14_p3	lambda_cid14_p4	lambda_cid14_p5	/jointset/ground_pelvis/pelvis_tilt/accel	/jointset/ground_pelvis/pelvis_tx/accel	/jointset/ground_pelvis/pelvis_ty/accel	/jointset/hip_r/hip_flexion_r/accel	/jointset/hip_r/hip_adduction_r/accel	/jointset/hip_r/hip_rotation_r/accel	/jointset/back/lumbar_extension/accel	/jointset/patellofemoral_r/patellar_flexion_r/accel	/jointset/knee_r/knee_flexion_r/accel	/jointset/knee_r/knee_adduction_r/accel	/jointset/knee_r/knee_rotation_r/accel	/jointset/ankle_r/ankle_angle_r/accel	/jointset/subtalar_r/subtalar_angle_r/accel	gamma_cid13_p0	gamma_cid14_p0	gamma_cid14_p1	gamma_cid14_p2	gamma_cid14_p3	gamma_cid14_p4	gamma_cid14_p5
1.5	-0.120620290634022	0.05062186016029182	0.8733330229347719	0.6767449048183531	-0.2238099965572917	-0.1521819514709554	-0.281049501409175	0.615651925243665	0.6156519252435124	0.0379536206732864	0.1745326033877209	0.2287441982410585	0.05512521796785344	0.2620843005339173	0.1389314821603504	0.3117821732634899	-1.465044438038344	0.01658593804182268	-0.2684370729669254	0.6972091388688071	-1.674689361898099	-1.67468936189814	0.2787971361368898	-1.567781249331379e-05	-0.5572937762996846	-0.1351190222585041	-0.07206615414257798	-0.02411889849399881	0.005620271869983403	-0.3170088480570463	0.07749346916070117	-0.01039433387233627	0.1272902953861247	-35.83496302126905	-16.94720122871536	-3.079996678823592	-4.076675861121903	0.7650995311809372	-663.5562282981467	61.25272317654553	0.09954323504708325	0.3259497539930048	-0.423503731096035	-0.7845524674800154	-0.03696727621344126	-0.4991706597989283	1.257739944565152	-0.9009585596107079	-0.9009585596106822	0.4232937770386201	0.0004863599833645311	-0.3363891881436794	-0.04914787747628952	1.064886334248935e-07	1.486027495269155e-07	-4.599022062514919e-07	1.17642292176601e-06	-2.781888236364662e-08	1.708536056781915e-07	-7.618253007401799e-07
1.51	-0.1179949203223587	0.05202729094622102	0.876428974524585	0.6620572265680928	-0.2236467775542176	-0.1548902234867211	-0.2740154118955773	0.5988624012939773	0.5988624012939897	0.04076461085605498	0.1745325243791777	0.2231550179492064	0.05377070843993115	0.2629546086273677	0.1421344111227778	0.3073434034870063	-1.472286017977067	0.01605539940653574	-0.2732013182492519	0.7095040478498507	-1.682966870391036	-1.682966870391136	0.2833834269092513	-4.26420850073787e-06	-0.5604574170737046	-0.1357606199575784	-0.06641690597492009	-0.02558608022013417	0.004940202845888885	-0.3139443611016086	0.08107478625912812	-0.01125868878399555	0.1220819541599429	-36.63268060512725	-15.68212364991479	-3.154364012282266	-4.155645758413876	0.31673782083457	-660.5608769660449	61.15835813358854	0.07551705058518679	0.3144209771918832	-0.4637376395680541	-0.6631626266265637	-0.06131916887026679	-0.4624540656226771	1.199658974790893	-0.7538868657592155	-0.7538868657681618	0.4736696051392367	0.001066336705435854	-0.2936113310557926	-0.06827162568090418	1.138187526735238e-07	1.524220207860608e-07	-5.340872633355172e-07	1.209891710108712e-06	-2.23440314946954e-08	1.80662686142864e-07	-8.260100135110713e-07
1.52	-0.1153618984389416	0.05346414232373938	0.8794786036089044	0.647303292144532	-0.2234889083398317	-0.157645618475947	-0.2668615147721859	0.5819975542850284	0.5819975542852125	0.04362093852210649	0.1745324790018924	0.2175367492878092	0.0524104617531065	0.2636146148844648	0.1452156004781811	0.3025176721647603	-1.478295672698116	0.01551598030390108	-0.277861667658509	0.7211706608275688	-1.689753973748939	-1.689753973749099	0.2878646327937907	-8.95156057958515e-06	-0.563111450208711	-0.1362664540389703	-0.06076765780728598	-0.02705326194629727	0.00426013382191202	-0.3108798741461806	0.08465610335754456	-0.01212304369569509	0.1168736129337478	-37.3939916566147	-14.42578460539172	-3.22648774466665	-4.239284592125766	-0.1378139053228673	-657.7152977498827	61.14048336783502	0.05748286777643587	0.3016018325881928	-0.5008960402485386	-0.5381674239452948	-0.0387433696830032	-0.4783914851850897	1.132080743900079	-0.6028775326041608	-0.6028775326041215	0.4022767994741883	-0.002733831230872863	-0.2344676603409401	-0.02199515393982244	1.222778300834949e-07	1.546024588634269e-07	-6.304910571921602e-07	1.232805386026764e-06	-1.370665970831052e-08	1.889312492208722e-07	-8.954505391994932e-07
1.53	-0.1127233764858003	0.05493114485828221	0.8824780921759382	0.6324955003080966	-0.2233365410486553	-0.1604472829581608	-0.2595942495021827	0.5650723173455129	0.5650723173456487	0.04652156056079966	0.1745325166865553	0.2118944532690553	0.05104574940279309	0.2640504294342382	0.1481590062543304	0.2973205482212294	-1.483046079039161	0.01495504880212079	-0.2824475365639135	0.7321601829329966	-1.695038638336579	-1.695038638336611	0.2922427693885077	9.272382777895764e-06	-0.5652634987188595	-0.1366551016522008	-0.0549295205924406	-0.02873686894378961	0.003601755471889191	-0.3080246841575814	0.08847203205941211	-0.01310822631120754	0.1115158309656191	-38.11476252818037	-13.10748364387378	-3.344860091211191	-4.310269624386751	-0.5799878871055119	-654.9535970731796	61.09882391302059	0.03074418173543237	0.2868258664364221	-0.5380047018445524	-0.4109660018330295	-0.06500688214516155	-0.4449158845946505	1.064056407899664	-0.4530719706775541	-0.4530719706583931	0.4529950637031577	0.003240949166821936	-0.1929193927808391	-0.04414315687492946	1.319364255398908e-07	1.550416366851523e-07	-7.505022588697092e-07	1.244504254993626e-06	-1.709109447152422e-09	1.955630125755494e-07	-9.704753661127914e-07
1.54	-0.110081673700529	0.05642680463384817	0.8854238326774487	0.6176467066557204	-0.2231898308408422	-0.1632940523877038	-0.2522207553183179	0.5481018715503551	0.5481018715504402	0.04946544656028293	0.1745325646990503	0.206233167575914	0.04967778185797524	0.2642507813103157	0.1509470486828075	0.2917680590601065	-1.486496035886164	0.01438456363156482	-0.2868826571243806	0.7424164435998427	-1.698795744877568	-1.698795744877472	0.2965174249525361	-6.885991954374339e-06	-0.5669093850861703	-0.1369174929398426	-0.04909138337760926	-0.03042047594130227	0.002943377121869849	-0.3051694941689879	0.09228796076127206	-0.01409340892674715	0.1061580489974849	-38.79093180947434	-11.79829542211455	-3.460753507525336	-4.386304736388844	-1.028445585862062	-652.3496610485554	61.1379064601082	0.01039033303725605	0.2705291630537531	-0.5719690837669221	-0.278077525137011	-0.04065410343814138	-0.4482418161976409	0.9854284561837444	-0.2973659232740135	-0.2973659232740213	0.3815805933364455	-0.009610294848809578	-0.1332352317733994	0.003256111177931378	1.416269417521647e-07	1.554256058103284e-07	-8.700755106977088e-07	1.254062185508445e-06	1.003723403560966e-08	2.027959098798159e-07	-1.042713124598433e-06
1.55	-0.1074391545987408	0.05794953769927253	0.8883123323796259	0.602769939351311	-0.2230489252765935	-0.1661846829882633	-0.2447484517863859	0.5311015432720129	0.5311015432720809	0.0524515075834115	0.1745325515253626	0.2005579632239436	0.04830776637735685	0.2642117907093455	0.1535702495016632	0.2858782717855745	-1.488632568629988	0.01379434898122504	-0.29121861841654	0.7519134840981661	-1.701005571009251	-1.701005571009155	0.3006730042886709	4.122529183718982e-07	-0.5680431316905306	-0.137064300791383	-0.04317140308762823	-0.03223690435007086	0.002297123041206165	-0.3024415094314407	0.09627268054730137	-0.01524424674343437	0.1007528040464141	-39.41852618858663	-10.45177503770506	-3.648561977897411	-4.443440602918339	-1.470834504597622	-649.8743908556561	61.09438486265546	-0.01721587995530432	0.2538238780100746	-0.6054819628594337	-0.1476940572366287	-0.06843473265605332	-0.4223145707887619	0.9122250434510096	-0.1431713426279387	-0.1431713426278407	0.4292132139940625	0.005550806244901223	-0.09017015330138022	-0.02047077510263556	1.513542362266458e-07	1.55745964915567e-07	-9.891441681338364e-07	1.261153382589388e-06	2.149414362152418e-08	2.107214180390438e-07	-1.111739695547863e-06
1.56	-0.1047982598276208	0.05949762444022718	0.8911403345263452	0.5878785561378146	-0.2229139677762162	-0.1691178814587555	-0.2371851012101118	0.5140870406554561	0.514087040655498	0.05547845772194712	0.1745325415185316	0.1948740762502226	0.04693691850986645	0.2639259151767277	0.1560177837888659	0.2796685479684986	-1.489419217703075	0.01319495085792638	-0.2953962311112468	0.760625852468262	-1.701630612521434	-1.701630612521337	0.3046952480344916	-6.252618625534824e-06	-0.5686459094362536	-0.1370839703142282	-0.03725142279766705	-0.03405333275885308	0.001650868960491732	-0.2997135246938994	0.100257400333325	-0.01639508456013854	0.09534755909533132	-39.99432777732392	-9.114366543518917	-3.833418181281314	-4.506242463324122	-1.920784615892106	-647.5599785159302	61.13513311475332	-0.03898665329228802	0.2353958567231263	-0.635956392275691	-0.008100790989585353	-0.04249079802992075	-0.4165720967071503	0.8284940305382859	0.01959100062597756	0.01959100062597762	0.3549134752736253	-0.01240291813212925	-0.0270414600459686	0.02868377691698732	1.61265622457217e-07	1.578864865505095e-07	-1.109614046338519e-06	1.271749497749385e-06	3.073560855663718e-08	2.279702473984e-07	-1.181305552034935e-06
1.57	-0.1021613560120056	0.06106928443075298	0.8939047386674742	0.5729858622894979	-0.2227850952483439	-0.1720922694505958	-0.22953875108899	0.4970741079944832	0.4970741079945238	0.05854497003666091	0.1745325933453269	0.1891867702124783	0.04556644808709643	0.2634112434578508	0.1582820160048013	0.2731655392867801	-1.488888600102989	0.01257735408131341	-0.2994490446520001	0.7685073493084513	-1.700686145941516	-1.700686145941479	0.3085836842351878	1.057942474098499e-05	-0.5687243621500034	-0.136989194212852	-0.03127013452067582	-0.03607008723837362	0.001007982703376725	-0.2971533071057844	0.1043979570016353	-0.01766615206126819	0.0899217772175914	-40.51839488710064	-7.746045342688034	-4.067989908450614	-4.557790940031439	-2.360143557017444	-645.4498187587541	61.14508684383303	-0.06423398232173609	0.2171153440991741	-0.6644295488210193	0.1183043073447995	-0.07164968698712175	-0.3945363966063674	0.7474541436669095	0.172305097098428	0.1723050970894497	0.4021804244737429	0.008055415070040681	0.01542037003993989	0.002960201114202057	1.714071233829009e-07	1.623022113475818e-07	-1.231835450503896e-06	1.286726760508198e-06	3.720776767824832e-08	2.568732282579164e-07	-1.25154551544406e-06
